<svg xmlns="http://www.w3.org/2000/svg" width="93.496" height="30.149" viewBox="0 0 93.496 30.149">
  <g id="组_8" data-name="组 8" transform="translate(3180.118 -902.448) rotate(180)">
    <path id="路径_43" data-name="路径 43" d="M613.7,332.6a19.594,19.594,0,0,1,2.68.36,25.45,25.45,0,0,1,6.057,2.157q11.123,5.6,22.234,11.229,6.629,3.348,13.26,6.69c.767.388,1.533.777,2.295,1.176.32.167.329.217.089.5q-1.361,1.584-2.735,3.157c-.324.371-.335.37-.78.146q-4.445-2.238-8.888-4.48l-10.358-5.23c-4.527-2.286-9.065-4.549-13.576-6.867a31.468,31.468,0,0,0-5.506-2.306,18.371,18.371,0,0,0-4.608-.817,11.883,11.883,0,0,0-2.71.3,27.018,27.018,0,0,0-7.017,2.507c-3.684,1.895-7.391,3.746-11.089,5.614Q582.03,352.3,571,357.866c-.873.44-.707.479-1.348-.25-.817-.93-1.622-1.87-2.429-2.808-.337-.391-.335-.406.142-.647q3.982-2.011,7.966-4.018l19.474-9.831c3.56-1.8,7.112-3.612,10.685-5.383a22.889,22.889,0,0,1,6.852-2.183C612.8,332.68,613.267,332.646,613.7,332.6Z" transform="translate(2519.632 -1265.195)" fill="#800d11"/>
    <path id="路径_44" data-name="路径 44" d="M625.954,365.2a23.329,23.329,0,0,0-8.807,2.718c-1.917,1.007-3.828,2.027-5.746,3.033q-8.541,4.478-17.085,8.95-3.495,1.83-6.99,3.658c-.48.251-.487.249-.851-.169q-1.135-1.3-2.263-2.611c-.442-.514-.44-.519.144-.814l8.746-4.417,21.772-11c1.672-.845,3.317-1.745,5.067-2.427a22.426,22.426,0,0,1,5.723-1.479,10.925,10.925,0,0,1,3.475.317,26.139,26.139,0,0,1,6.374,2.334q7.5,3.792,15.007,7.577,9.022,4.557,18.042,9.117c.476.241.481.248.15.633q-1.227,1.428-2.463,2.847c-.273.313-.282.312-.641.124l-13.2-6.913q-4-2.093-8-4.184-4.314-2.266-8.622-4.543a24.1,24.1,0,0,0-8.034-2.665A7.03,7.03,0,0,0,625.954,365.2Z" transform="translate(2506.965 -1286.179)" fill="#800d11"/>
  </g>
</svg>
