<svg xmlns="http://www.w3.org/2000/svg" width="42.073" height="42.075" viewBox="0 0 42.073 42.075">
  <g id="图层_1" data-name="图层 1" transform="translate(-18.84 -20.81)">
    <path id="路径_25869" data-name="路径 25869" d="M179.188,33.92V24.659a2.849,2.849,0,0,0-2.849-2.849H167.08" transform="translate(-119.275 0)" fill="none" stroke="#000" stroke-linecap="round" stroke-miterlimit="10" stroke-width="2"/>
    <path id="路径_25870" data-name="路径 25870" d="M31.948,21.81H22.689a2.849,2.849,0,0,0-2.849,2.849V33.92" transform="translate(0 0)" fill="none" stroke="#000" stroke-linecap="round" stroke-miterlimit="10" stroke-width="2"/>
    <path id="路径_25871" data-name="路径 25871" d="M19.84,169.05v9.261a2.849,2.849,0,0,0,2.849,2.849h9.259" transform="translate(0 -119.275)" fill="none" stroke="#000" stroke-linecap="round" stroke-miterlimit="10" stroke-width="2"/>
    <path id="路径_25872" data-name="路径 25872" d="M167.08,181.16h9.259a2.849,2.849,0,0,0,2.849-2.849V169.05" transform="translate(-119.275 -119.275)" fill="none" stroke="#000" stroke-linecap="round" stroke-miterlimit="10" stroke-width="2"/>
    <path id="路径_25873" data-name="路径 25873" d="M56.235,86.788a2.344,2.344,0,0,1-1.671-.693,2.469,2.469,0,0,1-.6-2.389,2.357,2.357,0,0,1,1.761-1.675,1.476,1.476,0,0,1,.177-.04l-1.079-1.318a.651.651,0,0,1,.038-.866L56.5,78.123a.651.651,0,0,1,.893-.036l.089.078c.142.123.281.247.422.365a13.105,13.105,0,0,0,3.935,2.359,9.465,9.465,0,0,0,7.464-.232L62.223,73.8l-1.709,1.77a.638.638,0,0,1-.46.19.651.651,0,0,1-.467-.19L56.3,72.3a.648.648,0,0,1-.019-.9l.141-.152c.19-.19.38-.4.57-.6l1.578-1.668,3.476-3.683a.821.821,0,0,1,.811-.255,3.416,3.416,0,0,0,2.45-.245,5.374,5.374,0,0,0,.509-.338l.1-.068a.651.651,0,0,1,.822.051l1.77,1.649a.653.653,0,0,1,.034.921l-2.632,2.82,7.274,7.234c.053-.114.1-.228.146-.338a9.2,9.2,0,0,0,.484-4.558,12.881,12.881,0,0,0-2.192-5.787,11.331,11.331,0,0,0-5-4.178c-.046-.017-.089-.04-.133-.061l-.042-.021a.494.494,0,0,1-.272-.536l.011-.07a.5.5,0,0,1,.556-.4l.632.084c.467.059.95.12,1.43.211a12.253,12.253,0,0,1,4.522,1.842,12.535,12.535,0,0,1,3.8,3.989,13.105,13.105,0,0,1,1.709,4.545,12.3,12.3,0,0,1-.4,5.945,11.371,11.371,0,0,1-1.487,3.024c.389.365.779.735,1.157,1.094l.606.579h.009a.65.65,0,0,1,.063.95l-2.762,2.883a.65.65,0,0,1-.915.023l-.009-.009c-.091-.085-.179-.167-.262-.251l-.351-.346c-.4-.389-.8-.794-1.2-1.189a14.957,14.957,0,0,1-4.49,1.861,12.3,12.3,0,0,1-7.01-.482,14.972,14.972,0,0,1-3.187-1.641,2.344,2.344,0,0,1-1.278,2.289,2.3,2.3,0,0,1-1.094.277Z" transform="translate(-27.569 -31.839)" fill="none" stroke="#000" stroke-linecap="round" stroke-linejoin="round" stroke-width="2"/>
  </g>
</svg>
