<svg xmlns="http://www.w3.org/2000/svg" width="42.075" height="42.075" viewBox="0 0 42.075 42.075">
  <g id="图层_1" data-name="图层 1" transform="translate(1 1)">
    <path id="路径_25850" data-name="路径 25850" d="M125.794,141.424l10.661-10.661a2.849,2.849,0,0,1,4.029,0l2.452,2.454a2.849,2.849,0,0,1,0,4.029l-10.488,10.486a2.849,2.849,0,0,1-2.013.836H126.4a1.44,1.44,0,0,1-1.44-1.442v-3.689a2.849,2.849,0,0,1,.833-2.013Z" transform="translate(-104.777 -108.899)" fill="none" stroke="#000" stroke-linecap="round" stroke-miterlimit="10" stroke-width="2"/>
    <line id="直线_2" data-name="直线 2" x2="6.152" transform="translate(33.403 39.669)" fill="none" stroke="#000" stroke-linecap="round" stroke-miterlimit="10" stroke-width="2"/>
    <path id="路径_25851" data-name="路径 25851" d="M39.2,23.913a3.911,3.911,0,0,0,3.875,3.909H22.849a3.909,3.909,0,0,1-3.909-3.909h0A3.911,3.911,0,0,1,22.849,20H43.074A3.907,3.907,0,0,0,39.2,23.913Z" transform="translate(-18.894 -19.85)" fill="none" stroke="#000" stroke-linecap="round" stroke-linejoin="round" stroke-width="2"/>
    <path id="路径_25852" data-name="路径 25852" d="M22.807,86.329a3.907,3.907,0,0,1-3.867,3.909H39.157a3.909,3.909,0,0,0,3.917-3.909h0a3.907,3.907,0,0,0-3.909-3.909H18.94A3.909,3.909,0,0,1,22.807,86.329Z" transform="translate(-18.894 -70.414)" fill="none" stroke="#000" stroke-linecap="round" stroke-linejoin="round" stroke-width="2"/>
    <path id="路径_25853" data-name="路径 25853" d="M194.242,31.326V22.059a2.849,2.849,0,0,0-2.849-2.849H185.93" transform="translate(-154.167 -19.21)" fill="none" stroke="#000" stroke-linecap="round" stroke-miterlimit="10" stroke-width="2"/>
    <path id="路径_25854" data-name="路径 25854" d="M18.7,166.45v9.26a2.849,2.849,0,0,0,2.849,2.849h9.26" transform="translate(-18.7 -138.483)" fill="none" stroke="#000" stroke-linecap="round" stroke-miterlimit="10" stroke-width="2"/>
  </g>
</svg>
