<svg xmlns="http://www.w3.org/2000/svg" width="42.513" height="42.716" viewBox="0 0 42.513 42.716">
  <g id="图层_2" data-name="图层 2" transform="translate(1 1)">
    <g id="图层_1" data-name="图层 1" transform="translate(0 0)">
      <path id="路径_29682" data-name="路径 29682" d="M64.615,22.255V8.375a1.747,1.747,0,0,0-2.092-1.711L53.7,8.461a1.749,1.749,0,0,0-1.4,1.711v2.546" transform="translate(-43.592 -6.605)" fill="none" stroke="#000" stroke-linecap="round" stroke-linejoin="round" stroke-width="2"/>
      <path id="路径_29683" data-name="路径 29683" d="M8.03,44.171l7.946-4.6,7.963,4.6Z" transform="translate(-7.739 -33.282)" fill="none" stroke="#000" stroke-linecap="round" stroke-linejoin="round" stroke-width="2"/>
      <line id="直线_902" data-name="直线 902" y2="10.857" transform="translate(1.626 10.971)" fill="none" stroke="#000" stroke-linecap="round" stroke-linejoin="round" stroke-width="2"/>
      <line id="直线_903" data-name="直线 903" y2="10.857" transform="translate(14.867 10.971)" fill="none" stroke="#000" stroke-linecap="round" stroke-linejoin="round" stroke-width="2"/>
      <line id="直线_904" data-name="直线 904" x2="16.742" transform="translate(0 21.978)" fill="none" stroke="#000" stroke-linecap="round" stroke-linejoin="round" stroke-width="2"/>
      <line id="直线_905" data-name="直线 905" y2="10.208" transform="translate(8.138 11.794)" fill="none" stroke="#000" stroke-linecap="round" stroke-linejoin="round" stroke-width="2"/>
      <path id="路径_29684" data-name="路径 29684" d="M131.675,133.636l12.3-3.208s-4.683-5.172-6.084-6.845-6.113-5.261-11.6,2.907" transform="translate(-103.513 -99.506)" fill="none" stroke="#000" stroke-linecap="round" stroke-linejoin="round" stroke-width="2"/>
      <path id="路径_29685" data-name="路径 29685" d="M128.576,156.45l-11.956,3.118s4.683,5.172,6.084,6.845,6.113,5.261,11.6-2.907" transform="translate(-95.682 -127.939)" fill="none" stroke="#000" stroke-linecap="round" stroke-linejoin="round" stroke-width="2"/>
      <path id="路径_29686" data-name="路径 29686" d="M167.933,18.621V9.352A2.852,2.852,0,0,0,165.081,6.5H155.81" transform="translate(-127.421 -6.5)" fill="none" stroke="#000" stroke-linecap="round" stroke-miterlimit="10" stroke-width="2"/>
      <path id="路径_29687" data-name="路径 29687" d="M8.58,153.74v9.269a2.852,2.852,0,0,0,2.852,2.852H20.7" transform="translate(-8.185 -125.744)" fill="none" stroke="#000" stroke-linecap="round" stroke-miterlimit="10" stroke-width="2"/>
    </g>
  </g>
</svg>
