<svg xmlns="http://www.w3.org/2000/svg" width="42.532" height="42.305" viewBox="0 0 42.532 42.305">
  <g id="图层_2" data-name="图层 2" transform="translate(1 1)">
    <g id="图层_1" data-name="图层 1" transform="translate(0 0)">
      <line id="直线_906" data-name="直线 906" x2="5.071" transform="translate(25.82 27.454)" fill="none" stroke="#000" stroke-linecap="round" stroke-linejoin="round" stroke-width="2"/>
      <line id="直线_907" data-name="直线 907" x2="8.219" transform="translate(25.67 32.181)" fill="none" stroke="#000" stroke-linecap="round" stroke-linejoin="round" stroke-width="2"/>
      <path id="路径_29688" data-name="路径 29688" d="M126.39,146.086l2.719-2.718a.924.924,0,0,1,.653-.272h3.294a.924.924,0,0,0,.924-.924V129.714a.924.924,0,0,0-.924-.924H114.074a.924.924,0,0,0-.924.924v12.571a.924.924,0,0,0,.924.924h6.964" transform="translate(-93.449 -106.196)" fill="none" stroke="#000" stroke-linecap="round" stroke-linejoin="round" stroke-width="2"/>
      <path id="路径_29689" data-name="路径 29689" d="M43.183,19.84V9.343A2.773,2.773,0,0,0,40.41,6.57H9.353A2.773,2.773,0,0,0,6.58,9.343V43.872a2.773,2.773,0,0,0,2.773,2.773H21.924" transform="translate(-6.58 -6.57)" fill="none" stroke="#000" stroke-linecap="round" stroke-miterlimit="10" stroke-width="2"/>
      <line id="直线_908" data-name="直线 908" x2="18.248" transform="translate(7.38 8.783)" fill="none" stroke="#000" stroke-linecap="round" stroke-miterlimit="10" stroke-width="2"/>
      <line id="直线_909" data-name="直线 909" x2="18.248" transform="translate(7.38 16.25)" fill="none" stroke="#000" stroke-linecap="round" stroke-miterlimit="10" stroke-width="2"/>
      <line id="直线_910" data-name="直线 910" x2="5.307" transform="translate(7.38 23.718)" fill="none" stroke="#000" stroke-linecap="round" stroke-miterlimit="10" stroke-width="2"/>
    </g>
  </g>
</svg>
