<svg xmlns="http://www.w3.org/2000/svg" width="42.189" height="42.075" viewBox="0 0 42.189 42.075">
  <g id="图层_1" data-name="图层 1" transform="translate(-14.38 -14.63)">
    <path id="路径_25879" data-name="路径 25879" d="M84.328,44.51l1.622,3.285,3.626.527-2.625,2.559.619,3.61-3.242-1.7-3.244,1.7.621-3.61L79.08,48.322l3.626-.527Z" transform="translate(-51.998 -23.575)" fill="none" stroke="#000" stroke-linecap="round" stroke-linejoin="round" stroke-width="2"/>
    <path id="路径_25880" data-name="路径 25880" d="M32.529,54.559H18.136A2.756,2.756,0,0,1,15.38,51.8V18.386a2.756,2.756,0,0,1,2.756-2.756h28.27a2.756,2.756,0,0,1,2.756,2.756v11.4" fill="none" stroke="#000" stroke-linecap="round" stroke-linejoin="round" stroke-width="2"/>
    <line id="直线_19" data-name="直线 19" x2="15.299" transform="translate(20.208 36.82)" fill="none" stroke="#000" stroke-linecap="round" stroke-linejoin="round" stroke-width="2"/>
    <line id="直线_20" data-name="直线 20" x2="10.655" transform="translate(20.165 43.773)" fill="none" stroke="#000" stroke-linecap="round" stroke-linejoin="round" stroke-width="2"/>
    <line id="直线_21" data-name="直线 21" x2="7.956" transform="translate(15.38 27.157)" fill="none" stroke="#000" stroke-linecap="round" stroke-linejoin="round" stroke-width="2"/>
    <line id="直线_22" data-name="直线 22" x2="7.956" transform="translate(40.878 27.157)" fill="none" stroke="#000" stroke-linecap="round" stroke-linejoin="round" stroke-width="2"/>
    <path id="路径_25881" data-name="路径 25881" d="M151.753,133.065a2.59,2.59,0,0,1-2.588,2.588H135.8a2.588,2.588,0,0,1,0-5.177h3.049a1.593,1.593,0,0,0,.9-2.908c-.022-.017-.046-.031-.07-.046h0a5.144,5.144,0,1,1,5.623.013l-.031.02-.013.009a1.593,1.593,0,0,0,.891,2.912h3.022a2.588,2.588,0,0,1,2.587,2.588Z" transform="translate(-96.184 -83.628)" fill="none" stroke="#000" stroke-linecap="round" stroke-miterlimit="10" stroke-width="2"/>
    <line id="直线_23" data-name="直线 23" x2="16.443" transform="translate(38.067 55.705)" fill="none" stroke="#000" stroke-linecap="round" stroke-miterlimit="10" stroke-width="2"/>
  </g>
</svg>
