<svg xmlns="http://www.w3.org/2000/svg" width="43.074" height="42.075" viewBox="0 0 43.074 42.075">
  <g id="图层_1" data-name="图层 1" transform="translate(1 1)">
    <path id="路径_25864" data-name="路径 25864" d="M199.87,31.325V22.059a2.849,2.849,0,0,0-2.849-2.849H193.46" transform="translate(-159.798 -19.208)" fill="none" stroke="#000" stroke-linecap="round" stroke-miterlimit="10" stroke-width="2"/>
    <path id="路径_25865" data-name="路径 25865" d="M16.22,177.45v7.171a2.849,2.849,0,0,0,2.849,2.849h6.8" transform="translate(-16.22 -147.395)" fill="none" stroke="#000" stroke-linecap="round" stroke-miterlimit="10" stroke-width="2"/>
    <line id="直线_7" data-name="直线 7" x2="23.742" transform="translate(0.803 2.38)" fill="none" stroke="#000" stroke-linecap="round" stroke-miterlimit="10" stroke-width="2"/>
    <line id="直线_8" data-name="直线 8" y2="2.319" transform="translate(12.785 0)" fill="none" stroke="#000" stroke-linecap="round" stroke-miterlimit="10" stroke-width="2"/>
    <line id="直线_9" data-name="直线 9" y1="11.222" transform="translate(23.163 2.38)" fill="none" stroke="#000" stroke-linecap="round" stroke-miterlimit="10" stroke-width="2"/>
    <path id="路径_25866" data-name="路径 25866" d="M27.65,34.7V47.195A2.754,2.754,0,0,0,30.4,49.951h9.728" transform="translate(-25.479 -31.756)" fill="none" stroke="#000" stroke-linecap="round" stroke-miterlimit="10" stroke-width="2"/>
    <line id="直线_10" data-name="直线 10" x2="5.981" transform="translate(3.451 22.169)" fill="none" stroke="#000" stroke-linecap="round" stroke-miterlimit="10" stroke-width="2"/>
    <line id="直线_11" data-name="直线 11" y2="3.308" transform="translate(7.713 10.277)" fill="none" stroke="#000" stroke-linecap="round" stroke-miterlimit="10" stroke-width="2"/>
    <line id="直线_12" data-name="直线 12" y2="6.681" transform="translate(12.554 7.01)" fill="none" stroke="#000" stroke-linecap="round" stroke-miterlimit="10" stroke-width="2"/>
    <line id="直线_13" data-name="直线 13" y2="4.573" transform="translate(17.395 9.118)" fill="none" stroke="#000" stroke-linecap="round" stroke-miterlimit="10" stroke-width="2"/>
    <path id="路径_25867" data-name="路径 25867" d="M115.012,135.868l-13.8-4.668L87.47,135.868l13.745,4.706Z" transform="translate(-73.938 -109.929)" fill="none" stroke="#000" stroke-linecap="round" stroke-linejoin="round" stroke-width="2"/>
    <line id="直线_14" data-name="直线 14" y2="4.813" transform="translate(17.63 27.521)" fill="none" stroke="#000" stroke-linecap="round" stroke-linejoin="round" stroke-width="2"/>
    <path id="路径_25868" data-name="路径 25868" d="M160.8,163.2v11.184l-5.341-2.023-3.54,3.54-2.828-2.828" transform="translate(-123.855 -135.851)" fill="none" stroke="#000" stroke-linecap="round" stroke-linejoin="round" stroke-width="2"/>
    <ellipse id="椭圆_29" data-name="椭圆 29" cx="2.454" cy="2.454" rx="2.454" ry="2.454" transform="translate(15.254 33.333)" fill="none" stroke="#000" stroke-linecap="round" stroke-linejoin="round" stroke-width="2"/>
  </g>
</svg>
