<svg xmlns="http://www.w3.org/2000/svg" width="42.552" height="42.075" viewBox="0 0 42.552 42.075">
  <g id="图层_2" data-name="图层 2" transform="translate(1 1)">
    <g id="图层_1" data-name="图层 1" transform="translate(0 0)">
      <path id="路径_29704" data-name="路径 29704" d="M168.391,18.609V9.349A2.849,2.849,0,0,0,165.542,6.5H156.29" transform="translate(-127.839 -6.5)" fill="none" stroke="#000" stroke-linecap="round" stroke-miterlimit="10" stroke-width="2"/>
      <path id="路径_29705" data-name="路径 29705" d="M9.05,153.74V163a2.849,2.849,0,0,0,2.849,2.849H21.16" transform="translate(-8.566 -125.773)" fill="none" stroke="#000" stroke-linecap="round" stroke-miterlimit="10" stroke-width="2"/>
      <path id="路径_29706" data-name="路径 29706" d="M7.6,14.331,17.481,8.61l9.9,5.721Z" transform="translate(-7.391 -8.209)" fill="none" stroke="#000" stroke-linecap="round" stroke-linejoin="round" stroke-width="2"/>
      <line id="直线_915" data-name="直线 915" y2="13.503" transform="translate(1.964 6.224)" fill="none" stroke="#000" stroke-linecap="round" stroke-linejoin="round" stroke-width="2"/>
      <line id="直线_916" data-name="直线 916" y2="8.576" transform="translate(18.43 6.224)" fill="none" stroke="#000" stroke-linecap="round" stroke-linejoin="round" stroke-width="2"/>
      <line id="直线_917" data-name="直线 917" x2="15.273" transform="translate(0 19.911)" fill="none" stroke="#000" stroke-linecap="round" stroke-linejoin="round" stroke-width="2"/>
      <line id="直线_918" data-name="直线 918" y2="12.302" transform="translate(10.099 7.248)" fill="none" stroke="#000" stroke-linecap="round" stroke-linejoin="round" stroke-width="2"/>
      <path id="路径_29707" data-name="路径 29707" d="M119.433,124.753l-3.229-.821a2.724,2.724,0,0,0-3.394,2.638v10.794A2.724,2.724,0,0,0,114.863,140l4.655,1.18a2.724,2.724,0,0,0,3.394-2.636V127.615a2.724,2.724,0,0,1,2.025-2.633l4.8-1.273a2.722,2.722,0,0,1,3.43,2.638v11.108a2.722,2.722,0,0,1-2.061,2.642l-3.844.963" transform="translate(-92.618 -101.371)" fill="none" stroke="#000" stroke-linecap="round" stroke-miterlimit="10" stroke-width="2"/>
      <line id="直线_919" data-name="直线 919" x2="2.15" transform="translate(24.392 28.314)" fill="none" stroke="#000" stroke-linecap="round" stroke-miterlimit="10" stroke-width="2"/>
      <line id="直线_920" data-name="直线 920" x2="2.15" transform="translate(24.392 32.96)" fill="none" stroke="#000" stroke-linecap="round" stroke-miterlimit="10" stroke-width="2"/>
      <line id="直线_921" data-name="直线 921" x2="2.15" transform="translate(34.212 28.314)" fill="none" stroke="#000" stroke-linecap="round" stroke-miterlimit="10" stroke-width="2"/>
      <line id="直线_922" data-name="直线 922" x2="2.15" transform="translate(34.212 32.96)" fill="none" stroke="#000" stroke-linecap="round" stroke-miterlimit="10" stroke-width="2"/>
    </g>
  </g>
</svg>
