<svg xmlns="http://www.w3.org/2000/svg" width="42.027" height="42.084" viewBox="0 0 42.027 42.084">
  <g id="图层_2" data-name="图层 2" transform="translate(1 1)">
    <g id="图层_1" data-name="图层 1" transform="translate(0 0)">
      <path id="路径_29708" data-name="路径 29708" d="M182.027,19.071V9.841A2.841,2.841,0,0,0,179.186,7H173.74" transform="translate(-142.063 -6.9)" fill="none" stroke="#000" stroke-linecap="round" stroke-miterlimit="10" stroke-width="2"/>
      <path id="路径_29709" data-name="路径 29709" d="M6.5,160.22v8.1a2.841,2.841,0,0,0,2.841,2.841h9.234" transform="translate(-6.5 -131.098)" fill="none" stroke="#000" stroke-linecap="round" stroke-miterlimit="10" stroke-width="2"/>
      <path id="路径_29710" data-name="路径 29710" d="M21.254,25.79H10.281A2.841,2.841,0,0,1,7.44,22.949V9.311A2.841,2.841,0,0,1,10.281,6.47H28.83a2.841,2.841,0,0,1,2.841,2.841v7.955" transform="translate(-7.262 -6.47)" fill="none" stroke="#000" stroke-linecap="round" stroke-linejoin="round" stroke-width="2"/>
      <ellipse id="椭圆_459" data-name="椭圆 459" cx="5.381" cy="4.027" rx="5.381" ry="4.027" transform="translate(24.021 33.934) rotate(-74.43)" fill="none" stroke="#000" stroke-linecap="round" stroke-linejoin="round" stroke-width="2"/>
      <path id="路径_29711" data-name="路径 29711" d="M125.418,117s-.352,5.023-.616,7.751c-.267,2.792,6.277,4.108,6.9-2.9a10.062,10.062,0,1,0-5.459,8.957" transform="translate(-91.676 -91.849)" fill="none" stroke="#000" stroke-linecap="round" stroke-linejoin="round" stroke-width="2"/>
      <path id="路径_29712" data-name="路径 29712" d="M39.13,31.14l5.66,2.531,5.965-2.531" transform="translate(-32.949 -26.467)" fill="none" stroke="#000" stroke-linecap="round" stroke-linejoin="round" stroke-width="2"/>
    </g>
  </g>
</svg>
