<svg xmlns="http://www.w3.org/2000/svg" width="77.635" height="79.952" viewBox="0 0 77.635 79.952">
  <g id="组_104" data-name="组 104" transform="translate(2 2)">
    <path id="路径_29756" data-name="路径 29756" d="M-3176.669,3067.411l-24.249-8.2-24.153,8.2,24.153,8.27Z" transform="translate(3225.28 -3058.206)" fill="none" stroke="#800d11" stroke-linecap="round" stroke-linejoin="round" stroke-width="4"/>
    <line id="直线_944" data-name="直线 944" y2="8.458" transform="translate(7.412 11.984)" fill="none" stroke="#800d11" stroke-linecap="round" stroke-linejoin="round" stroke-width="4"/>
    <path id="路径_29757" data-name="路径 29757" d="M-3142.881,3091.2v19.657l-9.385-3.555-6.22,6.221-4.97-4.971" transform="translate(3184.231 -3079.523)" fill="none" stroke="#800d11" stroke-linecap="round" stroke-linejoin="round" stroke-width="4"/>
    <circle id="椭圆_471" data-name="椭圆 471" cx="4.313" cy="4.313" r="4.313" transform="translate(3.234 22.197)" fill="none" stroke="#800d11" stroke-linecap="round" stroke-linejoin="round" stroke-width="4"/>
    <path id="路径_29758" data-name="路径 29758" d="M-3037.2,3077.486v-16.272a5.006,5.006,0,0,0-5.006-5.007h-6.26" transform="translate(3107.618 -3056.207)" fill="none" stroke="#800d11" stroke-linecap="round" stroke-miterlimit="10" stroke-width="4"/>
    <path id="路径_29759" data-name="路径 29759" d="M-3225.7,3203.445v16.273a5.006,5.006,0,0,0,5.007,5.007h16.273" transform="translate(3225.7 -3154.302)" fill="none" stroke="#800d11" stroke-linecap="round" stroke-miterlimit="10" stroke-width="4"/>
    <ellipse id="椭圆_472" data-name="椭圆 472" cx="8.47" cy="20.541" rx="8.47" ry="20.541" transform="translate(31.779 46.074) rotate(-45)" fill="none" stroke="#800d11" stroke-linecap="round" stroke-miterlimit="10" stroke-width="4"/>
    <ellipse id="椭圆_473" data-name="椭圆 473" cx="20.541" cy="8.47" rx="20.541" ry="8.47" transform="translate(31.779 63.146) rotate(-45)" fill="none" stroke="#800d11" stroke-linecap="round" stroke-miterlimit="10" stroke-width="4"/>
    <circle id="椭圆_474" data-name="椭圆 474" cx="1.782" cy="1.782" r="1.782" transform="translate(50.511 52.828)" fill="none" stroke="#800d11" stroke-linecap="round" stroke-miterlimit="10" stroke-width="4"/>
  </g>
</svg>
