<svg xmlns="http://www.w3.org/2000/svg" width="73.634" height="62.991" viewBox="0 0 73.634 62.991">
  <g id="组_109" data-name="组 109" transform="translate(2 2.01)">
    <rect id="矩形_2978" data-name="矩形 2978" width="24.508" height="24.508" rx="4" transform="translate(0 34.473)" fill="none" stroke="#800d11" stroke-linecap="round" stroke-miterlimit="10" stroke-width="4"/>
    <line id="直线_923" data-name="直线 923" x2="8.762" transform="translate(5.497 43.785)" fill="none" stroke="#800d11" stroke-linecap="round" stroke-miterlimit="10" stroke-width="4"/>
    <line id="直线_924" data-name="直线 924" x2="6.596" transform="translate(5.497 50.349)" fill="none" stroke="#800d11" stroke-linecap="round" stroke-miterlimit="10" stroke-width="4"/>
    <path id="路径_29729" data-name="路径 29729" d="M-3200.1,962.729l31.928-10.8a4.463,4.463,0,0,1,2.866,0l31.8,10.8a1.488,1.488,0,0,1,0,2.816l-31.79,10.885a4.466,4.466,0,0,1-2.887,0l-31.92-10.886A1.488,1.488,0,0,1-3200.1,962.729Z" transform="translate(3202.131 -951.692)" fill="none" stroke="#800d11" stroke-linecap="round" stroke-miterlimit="10" stroke-width="4"/>
    <path id="路径_29730" data-name="路径 29730" d="M-3091.832,991.992l28.075,4.747v13.084" transform="translate(3125.372 -980.001)" fill="none" stroke="#800d11" stroke-linecap="round" stroke-miterlimit="10" stroke-width="4"/>
    <path id="路径_29731" data-name="路径 29731" d="M-3019.8,1097.666" transform="translate(3074.774 -1054.23)" fill="none" stroke="#800d11" stroke-linecap="round" stroke-miterlimit="10" stroke-width="4"/>
    <line id="直线_933" data-name="直线 933" y2="10.604" transform="translate(9.116 16.866)" fill="none" stroke="#800d11" stroke-linecap="round" stroke-miterlimit="10" stroke-width="4"/>
    <circle id="椭圆_465" data-name="椭圆 465" cx="4.567" cy="4.567" r="4.567" transform="translate(56.84 31.165)" fill="none" stroke="#800d11" stroke-linecap="round" stroke-miterlimit="10" stroke-width="4"/>
    <path id="路径_29732" data-name="路径 29732" d="M-3012.125,1090.5l-3.537,12.572a1.9,1.9,0,0,0,1.826,2.41h6.706a1.9,1.9,0,0,0,1.839-2.36l-3.169-12.572A1.9,1.9,0,0,0-3012.125,1090.5Z" transform="translate(3071.917 -1048.227)" fill="none" stroke="#800d11" stroke-linecap="round" stroke-miterlimit="10" stroke-width="4"/>
  </g>
</svg>
