<svg xmlns="http://www.w3.org/2000/svg" width="74.423" height="74.79" viewBox="0 0 74.423 74.79">
  <g id="组_102" data-name="组 102" transform="translate(2 2)">
    <path id="路径_29747" data-name="路径 29747" d="M-3167.733,2752.021l-24.249-8.2-24.152,8.2,24.152,8.27Z" transform="translate(3216.345 -2742.817)" fill="none" stroke="#800d11" stroke-linecap="round" stroke-linejoin="round" stroke-width="4"/>
    <line id="直线_940" data-name="直线 940" y2="8.458" transform="translate(7.412 11.983)" fill="none" stroke="#800d11" stroke-linecap="round" stroke-linejoin="round" stroke-width="4"/>
    <path id="路径_29748" data-name="路径 29748" d="M-3133.945,2775.815v19.656l-9.385-3.555-6.22,6.22-4.971-4.97" transform="translate(3175.296 -2764.135)" fill="none" stroke="#800d11" stroke-linecap="round" stroke-linejoin="round" stroke-width="4"/>
    <circle id="椭圆_469" data-name="椭圆 469" cx="4.313" cy="4.313" r="4.313" transform="translate(3.234 22.197)" fill="none" stroke="#800d11" stroke-linecap="round" stroke-linejoin="round" stroke-width="4"/>
    <path id="路径_29749" data-name="路径 29749" d="M-3028.261,2762.1v-16.273a5.007,5.007,0,0,0-5.006-5.007h-6.26" transform="translate(3098.684 -2740.818)" fill="none" stroke="#800d11" stroke-linecap="round" stroke-miterlimit="10" stroke-width="4"/>
    <path id="路径_29750" data-name="路径 29750" d="M-3216.765,2888.056v16.273a5.006,5.006,0,0,0,5.006,5.007h16.273" transform="translate(3216.765 -2838.913)" fill="none" stroke="#800d11" stroke-linecap="round" stroke-miterlimit="10" stroke-width="4"/>
    <line id="直线_941" data-name="直线 941" y2="26.007" transform="translate(38.354 44.412)" fill="none" stroke="#800d11" stroke-linecap="round" stroke-miterlimit="10" stroke-width="4"/>
    <rect id="矩形_2981" data-name="矩形 2981" width="22.795" height="31.715" rx="2" transform="translate(46.96 39.075)" fill="none" stroke="#800d11" stroke-linecap="round" stroke-miterlimit="10" stroke-width="4"/>
    <line id="直线_942" data-name="直线 942" x2="8.533" transform="translate(53.867 48.759)" fill="none" stroke="#800d11" stroke-linecap="round" stroke-miterlimit="10" stroke-width="4"/>
    <line id="直线_951" data-name="直线 951" x2="8.533" transform="translate(53.867 57.415)" fill="none" stroke="#800d11" stroke-linecap="round" stroke-miterlimit="10" stroke-width="4"/>
  </g>
</svg>
