<svg xmlns="http://www.w3.org/2000/svg" width="72.611" height="61.302" viewBox="0 0 72.611 61.302">
  <g id="组_108" data-name="组 108" transform="translate(2 2.01)">
    <g id="组_97" data-name="组 97">
      <path id="路径_29724" data-name="路径 29724" d="M-3205.1,599.729l31.927-10.8a4.462,4.462,0,0,1,2.866,0l31.8,10.8a1.488,1.488,0,0,1,0,2.816l-31.79,10.885a4.464,4.464,0,0,1-2.886,0l-31.921-10.886A1.488,1.488,0,0,1-3205.1,599.729Z" transform="translate(3206.108 -588.692)" fill="none" stroke="#800d11" stroke-linecap="round" stroke-miterlimit="10" stroke-width="4"/>
      <path id="路径_29725" data-name="路径 29725" d="M-3096.831,628.992l28.075,4.747v13.083" transform="translate(3129.348 -617)" fill="none" stroke="#800d11" stroke-linecap="round" stroke-miterlimit="10" stroke-width="4"/>
      <path id="路径_29726" data-name="路径 29726" d="M-3024.8,734.666" transform="translate(3078.752 -691.229)" fill="none" stroke="#800d11" stroke-linecap="round" stroke-miterlimit="10" stroke-width="4"/>
      <line id="直线_932" data-name="直线 932" y2="10.604" transform="translate(8.094 16.866)" fill="none" stroke="#800d11" stroke-linecap="round" stroke-miterlimit="10" stroke-width="4"/>
      <circle id="椭圆_464" data-name="椭圆 464" cx="4.567" cy="4.567" r="4.567" transform="translate(55.817 31.165)" fill="none" stroke="#800d11" stroke-linecap="round" stroke-miterlimit="10" stroke-width="4"/>
      <path id="路径_29727" data-name="路径 29727" d="M-3017.125,727.5l-3.536,12.572a1.9,1.9,0,0,0,1.825,2.41h6.705a1.9,1.9,0,0,0,1.839-2.36l-3.169-12.571A1.9,1.9,0,0,0-3017.125,727.5Z" transform="translate(3075.894 -685.227)" fill="none" stroke="#800d11" stroke-linecap="round" stroke-miterlimit="10" stroke-width="4"/>
      <path id="路径_29728" data-name="路径 29728" d="M-3186.222,689.015l3.953,8.009a.653.653,0,0,0,.492.358l8.838,1.284a.655.655,0,0,1,.363,1.117l-6.4,6.234a.655.655,0,0,0-.188.579l1.51,8.8a.654.654,0,0,1-.949.69l-7.906-4.156a.657.657,0,0,0-.609,0l-7.9,4.156a.654.654,0,0,1-.949-.69l1.509-8.8a.655.655,0,0,0-.188-.579l-6.4-6.234a.655.655,0,0,1,.363-1.117l8.838-1.284a.654.654,0,0,0,.493-.358l3.952-8.009A.655.655,0,0,1-3186.222,689.015Z" transform="translate(3202.689 -658.906)" fill="none" stroke="#800d11" stroke-linecap="round" stroke-linejoin="round" stroke-width="4"/>
    </g>
  </g>
</svg>
