<svg xmlns="http://www.w3.org/2000/svg" width="72.611" height="61.301" viewBox="0 0 72.611 61.301">
  <g id="组_107" data-name="组 107" transform="translate(2 2.01)">
    <g id="组_98" data-name="组 98">
      <path id="路径_29733" data-name="路径 29733" d="M-3133.508,250.729l-31.927-10.8a4.463,4.463,0,0,0-2.866,0l-31.8,10.8a1.488,1.488,0,0,0,0,2.816l31.79,10.885a4.466,4.466,0,0,0,2.887,0l31.921-10.886A1.488,1.488,0,0,0-3133.508,250.729Z" transform="translate(3201.108 -239.692)" fill="none" stroke="#800d11" stroke-linecap="round" stroke-miterlimit="10" stroke-width="4"/>
      <path id="路径_29734" data-name="路径 29734" d="M-3146.085,279.992l-28.075,4.747v13.083" transform="translate(3182.179 -268)" fill="none" stroke="#800d11" stroke-linecap="round" stroke-miterlimit="10" stroke-width="4"/>
      <path id="路径_29735" data-name="路径 29735" d="M-3151.841,385.666" transform="translate(3166.501 -342.229)" fill="none" stroke="#800d11" stroke-linecap="round" stroke-miterlimit="10" stroke-width="4"/>
      <line id="直线_934" data-name="直线 934" y2="10.604" transform="translate(60.517 16.866)" fill="none" stroke="#800d11" stroke-linecap="round" stroke-miterlimit="10" stroke-width="4"/>
      <circle id="椭圆_466" data-name="椭圆 466" cx="4.567" cy="4.567" r="4.567" transform="translate(3.66 31.165)" fill="none" stroke="#800d11" stroke-linecap="round" stroke-miterlimit="10" stroke-width="4"/>
      <path id="路径_29736" data-name="路径 29736" d="M-3184.3,378.5l3.536,12.572a1.9,1.9,0,0,1-1.826,2.41h-6.705a1.9,1.9,0,0,1-1.839-2.36l3.169-12.571A1.9,1.9,0,0,1-3184.3,378.5Z" transform="translate(3194.146 -336.227)" fill="none" stroke="#800d11" stroke-linecap="round" stroke-miterlimit="10" stroke-width="4"/>
      <path id="路径_29737" data-name="路径 29737" d="M-3058.555,340.015l-3.953,8.009a.655.655,0,0,1-.493.358l-8.838,1.284a.655.655,0,0,0-.363,1.117l6.4,6.234a.654.654,0,0,1,.188.579l-1.51,8.8a.654.654,0,0,0,.949.69l7.905-4.156a.657.657,0,0,1,.61,0l7.9,4.156a.655.655,0,0,0,.95-.69l-1.51-8.8a.655.655,0,0,1,.188-.579l6.4-6.234a.655.655,0,0,0-.363-1.117l-8.838-1.284a.654.654,0,0,1-.493-.358l-3.953-8.009A.655.655,0,0,0-3058.555,340.015Z" transform="translate(3110.699 -309.906)" fill="none" stroke="#800d11" stroke-linecap="round" stroke-linejoin="round" stroke-width="4"/>
    </g>
  </g>
</svg>
