<svg xmlns="http://www.w3.org/2000/svg" width="78.573" height="71.533" viewBox="0 0 78.573 71.533">
  <g id="组_92" data-name="组 92" transform="translate(2 2)">
    <path id="路径_29718" data-name="路径 29718" d="M-3188.616,3867.95h11.861a5.007,5.007,0,0,0,5.007-5.007v-29.5a5.006,5.006,0,0,1,4.063-4.917l24.5-4.7a5.007,5.007,0,0,1,5.95,4.917v34.825a5.007,5.007,0,0,0,5.006,5.007h15.625" transform="translate(3191.176 -3801.035)" fill="none" stroke="#800d11" stroke-linecap="round" stroke-linejoin="round" stroke-width="4"/>
    <path id="路径_29719" data-name="路径 29719" d="M-3064.6,3835.042v-56.626a5.007,5.007,0,0,0-6.008-4.906l-25.251,5.158a5.007,5.007,0,0,0-4,4.905v8.918" transform="translate(3132.046 -3767.509)" fill="none" stroke="#800d11" stroke-linecap="round" stroke-linejoin="round" stroke-width="4"/>
    <line id="直线_925" data-name="直线 925" y1="3.723" x2="17.214" transform="translate(28.623 35.718)" fill="none" stroke="#800d11" stroke-linecap="round" stroke-linejoin="round" stroke-width="4"/>
    <line id="直线_926" data-name="直线 926" y1="3.723" x2="17.214" transform="translate(28.623 45.44)" fill="none" stroke="#800d11" stroke-linecap="round" stroke-linejoin="round" stroke-width="4"/>
    <line id="直线_927" data-name="直线 927" y1="3.723" x2="17.214" transform="translate(28.623 55.163)" fill="none" stroke="#800d11" stroke-linecap="round" stroke-linejoin="round" stroke-width="4"/>
    <circle id="椭圆_460" data-name="椭圆 460" cx="8.854" cy="8.854" r="8.854" transform="translate(0)" fill="none" stroke="#800d11" stroke-linecap="round" stroke-linejoin="round" stroke-width="4"/>
    <line id="直线_928" data-name="直线 928" y2="17.673" transform="translate(8.854 17.708)" fill="none" stroke="#800d11" stroke-linecap="round" stroke-linejoin="round" stroke-width="4"/>
  </g>
</svg>
