<svg xmlns="http://www.w3.org/2000/svg" width="66.549" height="72.506" viewBox="0 0 66.549 72.506">
  <g id="组_96" data-name="组 96" transform="translate(2 2)">
    <g id="组_95" data-name="组 95">
      <rect id="矩形_2979" data-name="矩形 2979" width="62.549" height="15.401" rx="1" transform="translate(0 35.984)" fill="none" stroke="#800d11" stroke-linecap="round" stroke-linejoin="round" stroke-width="4"/>
      <path id="矩形_2980" data-name="矩形 2980" d="M0,0H39.835a0,0,0,0,1,0,0V13.121a4,4,0,0,1-4,4H4a4,4,0,0,1-4-4V0A0,0,0,0,1,0,0Z" transform="translate(11.959 51.384)" fill="none" stroke="#800d11" stroke-linecap="round" stroke-linejoin="round" stroke-width="4"/>
      <circle id="椭圆_463" data-name="椭圆 463" cx="8.042" cy="8.042" r="8.042" transform="translate(23.729)" fill="none" stroke="#800d11" stroke-linecap="round" stroke-linejoin="round" stroke-width="4"/>
      <path id="路径_29723" data-name="路径 29723" d="M-3153.083,1730.137c4.219-3.381,10.893-5.564,18.4-5.564,7.547,0,14.248,2.2,18.464,5.612" transform="translate(3167.201 -1701.491)" fill="none" stroke="#800d11" stroke-linecap="round" stroke-linejoin="round" stroke-width="4"/>
    </g>
  </g>
</svg>
