<svg xmlns="http://www.w3.org/2000/svg" width="70.37" height="71.497" viewBox="0 0 70.37 71.497">
  <g id="组_94" data-name="组 94" transform="translate(2 2)">
    <g id="组_93" data-name="组 93">
      <path id="路径_29720" data-name="路径 29720" d="M-3188.008,2149.941v20.588a4.7,4.7,0,0,0,4.7,4.7h42.989a4.7,4.7,0,0,0,4.7-4.7v-21.493" transform="translate(3194.27 -2107.729)" fill="none" stroke="#800d11" stroke-linecap="round" stroke-linejoin="round" stroke-width="4"/>
      <circle id="椭圆_461" data-name="椭圆 461" cx="7.435" cy="7.435" r="7.435" transform="translate(40.022)" fill="none" stroke="#800d11" stroke-linecap="round" stroke-linejoin="round" stroke-width="4"/>
      <path id="路径_29721" data-name="路径 29721" d="M-3088.1,2085.672l4.384,10.587a3.785,3.785,0,0,0,3.494,2.329h.363a3.786,3.786,0,0,0,3.527-5.161l-5.1-13.082a3.785,3.785,0,0,0-3.526-2.409h-13.215a3.786,3.786,0,0,0-3.431,2.184l-6.1,13.082a3.786,3.786,0,0,0,3.43,5.386h0a3.785,3.785,0,0,0,3.44-2.206l4.949-10.71" transform="translate(3139.368 -2058.898)" fill="none" stroke="#800d11" stroke-linecap="round" stroke-linejoin="round" stroke-width="4"/>
      <line id="直线_929" data-name="直线 929" x2="66.37" transform="translate(0 41.306)" fill="none" stroke="#800d11" stroke-linecap="round" stroke-linejoin="round" stroke-width="4"/>
      <circle id="椭圆_462" data-name="椭圆 462" cx="8.027" cy="8.027" r="8.027" transform="translate(4.638 4.619)" fill="none" stroke="#800d11" stroke-linecap="round" stroke-linejoin="round" stroke-width="4"/>
      <line id="直线_930" data-name="直线 930" x2="13.441" transform="translate(5.945 21.858)" fill="none" stroke="#800d11" stroke-linecap="round" stroke-linejoin="round" stroke-width="4"/>
      <line id="直线_931" data-name="直线 931" x2="19.848" transform="translate(2.385 29.21)" fill="none" stroke="#800d11" stroke-linecap="round" stroke-linejoin="round" stroke-width="4"/>
    </g>
    <path id="路径_29722" data-name="路径 29722" d="M-3131.479,2173.7l7.805,7.806h-23.888" transform="translate(3166.491 -2124.666)" fill="none" stroke="#800d11" stroke-linecap="round" stroke-linejoin="round" stroke-width="4"/>
  </g>
</svg>
