<svg xmlns="http://www.w3.org/2000/svg" width="69.327" height="68.257" viewBox="0 0 69.327 68.257">
  <g id="组_110" data-name="组 110" transform="translate(301.562 -6424.315)">
    <g id="组_101" data-name="组 101" transform="translate(-299.562 6426.315)">
      <path id="路径_29743" data-name="路径 29743" d="M-3110.629,1420.268l19.875-6.724,19.8,6.724-19.8,6.778Z" transform="translate(3136.286 -1373.73)" fill="none" stroke="#800d11" stroke-linecap="round" stroke-linejoin="round" stroke-width="4"/>
      <line id="直线_938" data-name="直线 938" y2="6.932" transform="translate(59.425 48.816)" fill="none" stroke="#800d11" stroke-linecap="round" stroke-linejoin="round" stroke-width="4"/>
      <path id="路径_29744" data-name="路径 29744" d="M-3089.972,1443.929V1454.3a21.65,21.65,0,0,0,13.885,4.9" transform="translate(3121.579 -1395.361)" fill="none" stroke="#800d11" stroke-linecap="round" stroke-linejoin="round" stroke-width="4"/>
      <circle id="椭圆_468" data-name="椭圆 468" cx="3.535" cy="3.535" r="3.535" transform="translate(55.779 57.187)" fill="none" stroke="#800d11" stroke-linecap="round" stroke-linejoin="round" stroke-width="4"/>
      <path id="路径_29745" data-name="路径 29745" d="M-3182.662,1336.709h-12.7a4.321,4.321,0,0,1-4.321-4.321v-52.725a4.321,4.321,0,0,1,4.321-4.321h47.708a4.321,4.321,0,0,1,4.321,4.321v28.181" transform="translate(3199.687 -1275.341)" fill="none" stroke="#800d11" stroke-linecap="round" stroke-miterlimit="10" stroke-width="4"/>
      <path id="路径_29746" data-name="路径 29746" d="M-3150.875,1304.722l2.65,5.37a.865.865,0,0,0,.651.473l5.926.861a.864.864,0,0,1,.479,1.474l-4.288,4.18a.864.864,0,0,0-.248.765l1.012,5.9a.864.864,0,0,1-1.254.911l-5.3-2.787a.866.866,0,0,0-.8,0l-5.3,2.787a.865.865,0,0,1-1.254-.911l1.012-5.9a.865.865,0,0,0-.249-.765l-4.288-4.18a.864.864,0,0,1,.479-1.474l5.926-.861a.864.864,0,0,0,.651-.473l2.65-5.37A.864.864,0,0,1-3150.875,1304.722Z" transform="translate(3173.137 -1295.915)" fill="none" stroke="#800d11" stroke-linecap="round" stroke-miterlimit="10" stroke-width="4"/>
      <line id="直线_939" data-name="直线 939" x2="8.914" transform="translate(9.828 37.798)" fill="none" stroke="#800d11" stroke-linecap="round" stroke-miterlimit="10" stroke-width="4"/>
    </g>
  </g>
</svg>
