<svg xmlns="http://www.w3.org/2000/svg" width="75.161" height="74.423" viewBox="0 0 75.161 74.423">
  <g id="组_103" data-name="组 103" transform="translate(2 2)">
    <path id="路径_29751" data-name="路径 29751" d="M-3199.87,3411.128l23.683-8.012,23.589,8.012-23.589,8.077Z" transform="translate(3199.87 -3401.73)" fill="none" stroke="#800d11" stroke-linecap="round" stroke-linejoin="round" stroke-width="4"/>
    <line id="直线_943" data-name="直线 943" y2="8.261" transform="translate(40.238 12.112)" fill="none" stroke="#800d11" stroke-linecap="round" stroke-linejoin="round" stroke-width="4"/>
    <path id="路径_29752" data-name="路径 29752" d="M-3178.624,3434.367v12.362a25.8,25.8,0,0,0,16.544,5.843" transform="translate(3185.715 -3422.55)" fill="none" stroke="#800d11" stroke-linecap="round" stroke-linejoin="round" stroke-width="4"/>
    <circle id="椭圆_470" data-name="椭圆 470" cx="4.212" cy="4.212" r="4.212" transform="translate(35.894 22.087)" fill="none" stroke="#800d11" stroke-linecap="round" stroke-linejoin="round" stroke-width="4"/>
    <path id="路径_29753" data-name="路径 29753" d="M-3086.328,3533.947l30.559-10.627-14.411,28.767-3.9-12.13Z" transform="translate(3124.225 -3481.813)" fill="none" stroke="#800d11" stroke-linecap="round" stroke-linejoin="round" stroke-width="4"/>
    <path id="路径_29754" data-name="路径 29754" d="M-3009.155,3420.243v-16.273a5.007,5.007,0,0,0-5.006-5.007h-6.26" transform="translate(3080.315 -3398.963)" fill="none" stroke="#800d11" stroke-linecap="round" stroke-miterlimit="10" stroke-width="4"/>
    <path id="路径_29755" data-name="路径 29755" d="M-3197.659,3546.2v16.273a5.006,5.006,0,0,0,5.006,5.007h8.949" transform="translate(3198.397 -3497.058)" fill="none" stroke="#800d11" stroke-linecap="round" stroke-miterlimit="10" stroke-width="4"/>
  </g>
</svg>
