<svg xmlns="http://www.w3.org/2000/svg" width="66.8" height="72.535" viewBox="0 0 66.8 72.535">
  <g id="组_106" data-name="组 106" transform="translate(296.48 -5954.591)">
    <path id="路径_29760" data-name="路径 29760" d="M-3184.461-51.956a3.14,3.14,0,0,1,3.14-3.14h9.42v-10.99l18.84-12.56,18.84,12.56V-55.1h9.42a3.14,3.14,0,0,1,3.14,3.14v20.9a3.14,3.14,0,0,1-3.14,3.14h-56.744a2.916,2.916,0,0,1-2.916-2.916Z" transform="translate(2889.981 6053.043)" fill="none" stroke="#800d11" stroke-linecap="round" stroke-linejoin="round" stroke-width="4"/>
    <path id="路径_29761" data-name="路径 29761" d="M-3090.384-125.684v15.7" transform="translate(2827.304 6084.381)" fill="none" stroke="#800d11" stroke-linecap="round" stroke-linejoin="round" stroke-width="4"/>
    <path id="路径_29762" data-name="路径 29762" d="M-3071.544-120.443v-9.42s-2.355,4.71-9.42,0-9.42,0-9.42,0v9.42s2.355-4.71,9.42,0S-3071.544-120.443-3071.544-120.443Z" transform="translate(2827.304 6088.56)" fill="none" stroke="#800d11" stroke-linecap="round" stroke-linejoin="round" stroke-width="4"/>
    <path id="路径_29763" data-name="路径 29763" d="M-3096.64,19.091V-8.088h-12.56V19.091" transform="translate(2839.84 6006.035)" fill="none" stroke="#800d11" stroke-linecap="round" stroke-linejoin="round" stroke-width="4"/>
    <path id="路径_29764" data-name="路径 29764" d="M-3118.607,73.342h18.84" transform="translate(2846.107 5951.784)" fill="none" stroke="#800d11" stroke-linecap="round" stroke-linejoin="round" stroke-width="4"/>
  </g>
</svg>
