<svg xmlns="http://www.w3.org/2000/svg" width="74.794" height="74.423" viewBox="0 0 74.794 74.423">
  <g id="组_100" data-name="组 100" transform="translate(2 2)">
    <g id="组_99" data-name="组 99">
      <path id="路径_29738" data-name="路径 29738" d="M-3052.738,2431.323V2415.05a5.007,5.007,0,0,0-5.007-5.007h-16.273" transform="translate(3123.161 -2410.043)" fill="none" stroke="#800d11" stroke-linecap="round" stroke-miterlimit="10" stroke-width="4"/>
      <path id="路径_29739" data-name="路径 29739" d="M-3221.256,2557.281v16.273a5.007,5.007,0,0,0,5.007,5.007h16.273" transform="translate(3221.256 -2508.138)" fill="none" stroke="#800d11" stroke-linecap="round" stroke-miterlimit="10" stroke-width="4"/>
    </g>
    <path id="路径_29740" data-name="路径 29740" d="M-3183.6,2444.158h-27.926a5.006,5.006,0,0,1-5.006-5.007v-22.919a5.006,5.006,0,0,1,5.006-5.007h22.919a5.007,5.007,0,0,1,5.007,5.007v19.582" transform="translate(3218.112 -2410.831)" fill="none" stroke="#800d11" stroke-linecap="round" stroke-linejoin="round" stroke-width="4"/>
    <line id="直线_935" data-name="直线 935" x2="9.155" transform="translate(10.732 11.926)" fill="none" stroke="#800d11" stroke-linecap="round" stroke-linejoin="round" stroke-width="4"/>
    <line id="直线_936" data-name="直线 936" x2="14.84" transform="translate(10.46 21.796)" fill="none" stroke="#800d11" stroke-linecap="round" stroke-linejoin="round" stroke-width="4"/>
    <path id="路径_29741" data-name="路径 29741" d="M-3139.343,2547.334l21.771-7.365,21.684,7.365-21.684,7.424Z" transform="translate(3166.683 -2496.604)" fill="none" stroke="#800d11" stroke-linecap="round" stroke-linejoin="round" stroke-width="4"/>
    <line id="直线_937" data-name="直线 937" y2="7.593" transform="translate(64.328 53.225)" fill="none" stroke="#800d11" stroke-linecap="round" stroke-linejoin="round" stroke-width="4"/>
    <path id="路径_29742" data-name="路径 29742" d="M-3119.812,2568.7v11.364a23.714,23.714,0,0,0,15.208,5.371" transform="translate(3153.671 -2515.743)" fill="none" stroke="#800d11" stroke-linecap="round" stroke-linejoin="round" stroke-width="4"/>
    <circle id="椭圆_467" data-name="椭圆 467" cx="3.872" cy="3.872" r="3.872" transform="translate(60.335 62.394)" fill="none" stroke="#800d11" stroke-linecap="round" stroke-linejoin="round" stroke-width="4"/>
  </g>
</svg>
