<svg id="组_85" data-name="组 85" xmlns="http://www.w3.org/2000/svg" width="22" height="22" viewBox="0 0 22 22">
  <g id="路径_1447" data-name="路径 1447" transform="translate(8.529 5.793)" fill="none" stroke-linecap="round" stroke-linejoin="round">
    <path d="M.707.707,4.971,4.971.707,9.236" stroke="none"/>
    <path d="M 0.70703125 9.73583984375 C 0.739013671875 9.73583984375 0.77099609375 9.7327880859375 0.802490234375 9.7266845703125 C 0.833984375 9.7205810546875 0.864990234375 9.71142578125 0.8951416015625 9.69921875 C 0.92529296875 9.68701171875 0.954345703125 9.6717529296875 0.9820556640625 9.6534423828125 C 1.009765625 9.6351318359375 1.0361328125 9.61376953125 1.060546875 9.58935546875 L 5.324951171875 5.324951171875 C 5.373779296875 5.2762451171875 5.410400390625 5.2198486328125 5.434814453125 5.15966796875 C 5.459228515625 5.0994873046875 5.471435546875 5.0355224609375 5.471435546875 4.971435546875 C 5.471435546875 4.9073486328125 5.459228515625 4.8433837890625 5.434814453125 4.783203125 C 5.410400390625 4.7230224609375 5.373779296875 4.6666259765625 5.324951171875 4.617919921875 L 1.060546875 0.353515625 C 1.0361328125 0.3291015625 1.009765625 0.3077392578125 0.9820556640625 0.2894287109375 C 0.954345703125 0.2711181640625 0.92529296875 0.255859375 0.8951416015625 0.24365234375 C 0.864990234375 0.2314453125 0.833984375 0.2222900390625 0.802490234375 0.2161865234375 C 0.77099609375 0.2100830078125 0.739013671875 0.20703125 0.70703125 0.20703125 C 0.675048828125 0.20703125 0.64306640625 0.2100830078125 0.611572265625 0.2161865234375 C 0.580078125 0.2222900390625 0.549072265625 0.2314453125 0.5189208984375 0.24365234375 C 0.48876953125 0.255859375 0.459716796875 0.2711181640625 0.4320068359375 0.2894287109375 C 0.404296875 0.3077392578125 0.3779296875 0.3291015625 0.353515625 0.353515625 C 0.3046875 0.4022216796875 0.26806640625 0.4586181640625 0.24365234375 0.518798828125 C 0.21923828125 0.5789794921875 0.20703125 0.6429443359375 0.20703125 0.70703125 C 0.20703125 0.7711181640625 0.21923828125 0.8350830078125 0.24365234375 0.895263671875 C 0.26806640625 0.9554443359375 0.3046875 1.0118408203125 0.353515625 1.060546875 L 4.2642822265625 4.971435546875 L 0.353515625 8.88232421875 C 0.3046875 8.9310302734375 0.26806640625 8.9874267578125 0.24365234375 9.047607421875 C 0.21923828125 9.1077880859375 0.20703125 9.1717529296875 0.20703125 9.23583984375 C 0.20703125 9.2999267578125 0.21923828125 9.3638916015625 0.24365234375 9.424072265625 C 0.26806640625 9.4842529296875 0.3046875 9.5406494140625 0.353515625 9.58935546875 C 0.3779296875 9.61376953125 0.404296875 9.6351318359375 0.4320068359375 9.6534423828125 C 0.459716796875 9.6717529296875 0.48876953125 9.68701171875 0.5189208984375 9.69921875 C 0.549072265625 9.71142578125 0.580078125 9.7205810546875 0.611572265625 9.7266845703125 C 0.64306640625 9.7327880859375 0.675048828125 9.73583984375 0.70703125 9.73583984375 Z" stroke="none" fill="#fff"/>
  </g>
  <g id="椭圆_53" data-name="椭圆 53" fill="none" opacity="0.8">
    <path d="M11,0a10.966,10.966,0,1,0,4.282.864A10.965,10.965,0,0,0,11,0Z" stroke="none"/>
    <path d="M 11 21 C 9.621494293212891 21 8.307241439819336 20.71962738037109 7.111271858215332 20.21290969848633 C 5.915302276611328 19.70619201660156 4.837615966796875 18.9731330871582 3.932241439819336 18.06775856018066 C 3.026866912841797 17.16238403320312 2.293807983398438 16.08469772338867 1.787090301513672 14.88872814178467 C 1.280372619628906 13.69275856018066 1 12.37850570678711 1 11 C 1 9.621495246887207 1.280372619628906 8.307243347167969 1.787090301513672 7.111273765563965 C 2.293807983398438 5.915303707122803 3.026866912841797 4.837616920471191 3.932241439819336 3.932242870330811 C 4.837615966796875 3.02686882019043 5.915302276611328 2.293808221817017 7.111271858215332 1.787091016769409 C 8.307241439819336 1.280373811721802 9.621494293212891 1 11 1 C 12.37850475311279 1 13.69275665283203 1.280373811721802 14.88872623443604 1.787091016769409 C 16.08469581604004 2.293808221817017 17.16238403320312 3.02686882019043 18.06775665283203 3.932242870330811 C 18.97313117980957 4.837616920471191 19.70619201660156 5.915303707122803 20.21290969848633 7.111273765563965 C 20.71962547302246 8.307243347167969 21 9.621495246887207 21 11 C 21 12.37850570678711 20.71962547302246 13.69275856018066 20.21290969848633 14.88872814178467 C 19.70619201660156 16.08469772338867 18.97313117980957 17.16238403320312 18.06775665283203 18.06775856018066 C 17.16238403320312 18.9731330871582 16.08469581604004 19.70619201660156 14.88872623443604 20.21290969848633 C 13.69275665283203 20.71962738037109 12.37850475311279 21 11 21 M 11 22 C 12.51878261566162 22 13.96567344665527 21.69219589233398 15.28169536590576 21.13556671142578 C 16.59771728515625 20.57893562316895 17.78286933898926 19.77347946166992 18.77817344665527 18.77817535400391 C 19.77347755432129 17.78287124633789 20.57893562316895 16.59771728515625 21.13556480407715 15.28169536590576 C 21.69219589233398 13.96567344665527 22 12.51878261566162 22 11 C 22 9.481217384338379 21.69219589233398 8.034326553344727 21.13556480407715 6.718304634094238 C 20.57893371582031 5.40228271484375 19.77347755432129 4.217130661010742 18.77817344665527 3.221826076507568 C 17.78286933898926 2.226521730422974 16.59771728515625 1.421065211296082 15.28169536590576 0.8644347786903381 C 13.96567344665527 0.3078043758869171 12.51878261566162 -1.760392174168638e-15 11 -1.757834769942641e-15 C 9.481217384338379 -1.755277471595762e-15 8.034326553344727 0.3078043758869171 6.718304634094238 0.8644348382949829 C 5.40228271484375 1.421065330505371 4.217128753662109 2.226521730422974 3.221824645996094 3.221826076507568 C 2.226520538330078 4.217130661010742 1.421064376831055 5.40228271484375 0.8644332885742188 6.718304634094238 C 0.3078041076660156 8.034326553344727 0 9.481217384338379 0 11 C 0 12.51878261566162 0.3078041076660156 13.96567344665527 0.8644332885742188 15.28169536590576 C 1.421064376831055 16.59771728515625 2.226520538330078 17.78287124633789 3.221824645996094 18.77817535400391 C 4.217128753662109 19.77347946166992 5.40228271484375 20.57893562316895 6.718304634094238 21.13556671142578 C 8.034326553344727 21.69219589233398 9.481217384338379 22 11 22 Z" stroke="none" fill="#fff"/>
  </g>
</svg>
