<svg xmlns="http://www.w3.org/2000/svg" width="13.967" height="10.206" viewBox="0 0 13.967 10.206">
  <g id="ffan_huidaodingbu" transform="translate(-48.722 -48.762)">
    <path id="路径_1443" data-name="路径 1443" d="M97.524,396.541l6.689-6.446,6.2,6.446q-3.99-2.764-6.362-2.764T97.524,396.541Z" transform="translate(-48.264 -337.573)" fill="#fff"/>
    <path id="路径_1444" data-name="路径 1444" d="M55.711,51.356a.772.772,0,0,0-.628.219l-6.135,6.09a.76.76,0,0,0,0,1.079.772.772,0,0,0,1.087,0l5.677-5.629,5.675,5.634a.773.773,0,0,0,1.087-.019.759.759,0,0,0,0-1.06l-6.134-6.09a.772.772,0,0,0-.627-.223Zm-5.6-2.595H61.33a.763.763,0,1,1,0,1.527H50.106a.763.763,0,1,1,0-1.527Z" fill="#fff"/>
  </g>
</svg>
